<svg xmlns="http://www.w3.org/2000/svg" viewBox="0 0 750 500">
  <style>
    text { font-family: 'Segoe UI', Arial, sans-serif; }
    .title { font-size: 16px; font-weight: bold; fill: #333; }
    .label { font-size: 12px; fill: #555; }
    .value { font-size: 11px; fill: #333; }
    .axis { font-size: 10px; fill: #666; }
    .ci { font-size: 9px; fill: #888; }
  </style>
  
  <!-- Background -->
  <rect width="750" height="500" fill="#fafafa"/>
  
  <!-- Title -->
  <text x="375" y="30" text-anchor="middle" class="title">Figure 3: Signal Correlation with L2 PSNR (n=50, 95% CI)</text>
  
  <!-- Chart area -->
  <g transform="translate(180, 70)">
    <!-- Axis -->
    <line x1="0" y1="0" x2="0" y2="300" stroke="#333" stroke-width="1"/>
    <line x1="0" y1="150" x2="440" y2="150" stroke="#999" stroke-width="1" stroke-dasharray="3,3"/>
    
    <!-- Correlation labels -->
    <text x="-10" y="5" text-anchor="end" class="axis">+1.0</text>
    <text x="-10" y="80" text-anchor="end" class="axis">+0.5</text>
    <text x="-10" y="155" text-anchor="end" class="axis">0.0</text>
    <text x="-10" y="230" text-anchor="end" class="axis">-0.5</text>
    <text x="-10" y="305" text-anchor="end" class="axis">-1.0</text>
    
    <!-- Y-axis label -->
    <text x="-60" y="150" text-anchor="middle" class="label" transform="rotate(-90, -60, 150)">Correlation with L2 PSNR</text>
    
    <!-- Bars with CI error bars -->
    <!-- Light Count: 0.81 [0.69, 0.89] -->
    <g transform="translate(25, 0)">
      <rect x="-15" y="28.5" width="30" height="121.5" fill="#95a5a6"/>
      <line x1="0" y1="46.5" x2="0" y2="16.5" stroke="#333" stroke-width="2"/>
      <line x1="-5" y1="46.5" x2="5" y2="46.5" stroke="#333" stroke-width="2"/>
      <line x1="-5" y1="16.5" x2="5" y2="16.5" stroke="#333" stroke-width="2"/>
      <text x="0" y="330" text-anchor="middle" class="axis">Light</text>
      <text x="0" y="342" text-anchor="middle" class="axis">Count</text>
      <text x="0" y="10" text-anchor="middle" class="value" fill="#95a5a6">0.81</text>
      <text x="0" y="360" text-anchor="middle" class="ci">[0.69, 0.89]</text>
    </g>
    
    <!-- Mean + StdDev: 0.73 [0.56, 0.84] -->
    <g transform="translate(85, 0)">
      <rect x="-15" y="40.5" width="30" height="109.5" fill="#27ae60"/>
      <line x1="0" y1="66" x2="0" y2="24" stroke="#333" stroke-width="2"/>
      <line x1="-5" y1="66" x2="5" y2="66" stroke="#333" stroke-width="2"/>
      <line x1="-5" y1="24" x2="5" y2="24" stroke="#333" stroke-width="2"/>
      <text x="0" y="330" text-anchor="middle" class="axis">Mean+</text>
      <text x="0" y="342" text-anchor="middle" class="axis">StdDev</text>
      <text x="0" y="34" text-anchor="middle" class="value" fill="#27ae60" font-weight="bold">0.73 ✓</text>
      <text x="0" y="360" text-anchor="middle" class="ci">[0.56, 0.84]</text>
    </g>
    
    <!-- Mean: 0.77 [0.62, 0.86] -->
    <g transform="translate(145, 0)">
      <rect x="-15" y="34.5" width="30" height="115.5" fill="#3498db"/>
      <line x1="0" y1="57" x2="0" y2="21" stroke="#333" stroke-width="2"/>
      <line x1="-5" y1="57" x2="5" y2="57" stroke="#333" stroke-width="2"/>
      <line x1="-5" y1="21" x2="5" y2="21" stroke="#333" stroke-width="2"/>
      <text x="0" y="330" text-anchor="middle" class="axis">Mean</text>
      <text x="0" y="28" text-anchor="middle" class="value" fill="#3498db">0.77</text>
      <text x="0" y="360" text-anchor="middle" class="ci">[0.62, 0.86]</text>
    </g>
    
    <!-- StdDev: 0.69 [0.50, 0.81] -->
    <g transform="translate(205, 0)">
      <rect x="-15" y="46.5" width="30" height="103.5" fill="#3498db"/>
      <line x1="0" y1="75" x2="0" y2="28.5" stroke="#333" stroke-width="2"/>
      <line x1="-5" y1="75" x2="5" y2="75" stroke="#333" stroke-width="2"/>
      <line x1="-5" y1="28.5" x2="5" y2="28.5" stroke="#333" stroke-width="2"/>
      <text x="0" y="330" text-anchor="middle" class="axis">StdDev</text>
      <text x="0" y="40" text-anchor="middle" class="value" fill="#3498db">0.69</text>
      <text x="0" y="360" text-anchor="middle" class="ci">[0.50, 0.81]</text>
    </g>
    
    <!-- NonZero: 0.20 [-0.08, 0.45] - CI crosses zero! -->
    <g transform="translate(265, 0)">
      <rect x="-15" y="120" width="30" height="30" fill="#f39c12"/>
      <line x1="0" y1="162" x2="0" y2="82.5" stroke="#333" stroke-width="2"/>
      <line x1="-5" y1="162" x2="5" y2="162" stroke="#333" stroke-width="2"/>
      <line x1="-5" y1="82.5" x2="5" y2="82.5" stroke="#333" stroke-width="2"/>
      <text x="0" y="330" text-anchor="middle" class="axis">Non-</text>
      <text x="0" y="342" text-anchor="middle" class="axis">Zero</text>
      <text x="0" y="115" text-anchor="middle" class="value" fill="#f39c12">0.20</text>
      <text x="0" y="360" text-anchor="middle" class="ci" fill="#e74c3c">[-0.08, 0.45]</text>
    </g>
    
    <!-- Peak/Avg: -0.60 [-0.75, -0.39] -->
    <g transform="translate(325, 0)">
      <rect x="-15" y="150" width="30" height="90" fill="#e67e22"/>
      <line x1="0" y1="262.5" x2="0" y2="208.5" stroke="#333" stroke-width="2"/>
      <line x1="-5" y1="262.5" x2="5" y2="262.5" stroke="#333" stroke-width="2"/>
      <line x1="-5" y1="208.5" x2="5" y2="208.5" stroke="#333" stroke-width="2"/>
      <text x="0" y="330" text-anchor="middle" class="axis">Peak/</text>
      <text x="0" y="342" text-anchor="middle" class="axis">Avg</text>
      <text x="0" y="252" text-anchor="middle" class="value" fill="#e67e22">-0.60</text>
      <text x="0" y="360" text-anchor="middle" class="ci">[-0.75, -0.39]</text>
    </g>
    
    <!-- BW90: -0.68 [-0.81, -0.50] - Significantly negative! -->
    <g transform="translate(385, 0)">
      <rect x="-15" y="150" width="30" height="102" fill="#e74c3c"/>
      <line x1="0" y1="271.5" x2="0" y2="225" stroke="#333" stroke-width="2"/>
      <line x1="-5" y1="271.5" x2="5" y2="271.5" stroke="#333" stroke-width="2"/>
      <line x1="-5" y1="225" x2="5" y2="225" stroke="#333" stroke-width="2"/>
      <text x="0" y="330" text-anchor="middle" class="axis">BW90</text>
      <text x="0" y="264" text-anchor="middle" class="value" fill="#e74c3c" font-weight="bold">-0.68 ✗</text>
      <text x="0" y="360" text-anchor="middle" class="ci">[-0.81, -0.50]</text>
    </g>
  </g>
  
  <!-- Annotations -->
  <g transform="translate(550, 100)">
    <rect x="0" y="0" width="170" height="110" fill="#e8f8e8" rx="5" stroke="#27ae60"/>
    <text x="85" y="22" text-anchor="middle" class="label" fill="#27ae60" font-weight="bold">Best Signal:</text>
    <text x="85" y="42" text-anchor="middle" class="value">Mean + StdDev</text>
    <text x="85" y="60" text-anchor="middle" class="value">r = 0.73</text>
    <text x="85" y="78" text-anchor="middle" class="ci">95% CI: [0.56, 0.84]</text>
    <text x="85" y="96" text-anchor="middle" class="axis" fill="#27ae60">p &lt; 0.05 ✓</text>
  </g>
  
  <g transform="translate(550, 230)">
    <rect x="0" y="0" width="170" height="110" fill="#fde8e8" rx="5" stroke="#e74c3c"/>
    <text x="85" y="22" text-anchor="middle" class="label" fill="#e74c3c" font-weight="bold">Worst Signal:</text>
    <text x="85" y="42" text-anchor="middle" class="value">90% Bandwidth</text>
    <text x="85" y="60" text-anchor="middle" class="value">r = -0.68</text>
    <text x="85" y="78" text-anchor="middle" class="ci">95% CI: [-0.81, -0.50]</text>
    <text x="85" y="96" text-anchor="middle" class="axis" fill="#e74c3c">Significantly negative!</text>
  </g>
  
  <!-- Bottom notes -->
  <text x="375" y="440" text-anchor="middle" class="axis">Error bars show 95% confidence intervals (Fisher z-transformation)</text>
  <text x="375" y="455" text-anchor="middle" class="axis">CI not crossing zero = statistically significant (p &lt; 0.05)</text>
  <text x="375" y="475" text-anchor="middle" class="label" fill="#e74c3c">NonZero CI crosses zero → not significant</text>
  <text x="375" y="490" text-anchor="middle" class="label" fill="#27ae60">Mean+StdDev and BW90 are both statistically significant</text>
</svg>
